<mxfile host="app.diagrams.net" modified="2023-08-01T20:19:36.534Z" agent="Mozilla/5.0 (Windows NT 10.0; Win64; x64) AppleWebKit/537.36 (KHTML, like Gecko) Chrome/115.0.0.0 Safari/537.36" etag="TVwbnRVnsw6PpWZND0d0" version="21.6.5" type="google">
  <diagram name="Page-1" id="b520641d-4fe3-3701-9064-5fc419738815">
    <mxGraphModel grid="1" page="1" gridSize="10" guides="1" tooltips="1" connect="1" arrows="1" fold="1" pageScale="1" pageWidth="1100" pageHeight="850" background="none" math="0" shadow="0">
      <root>
        <mxCell id="0" />
        <mxCell id="1" parent="0" />
        <mxCell id="J5wI7S2JML-e4GqQWwzT-3" style="edgeStyle=orthogonalEdgeStyle;rounded=0;orthogonalLoop=1;jettySize=auto;html=1;" edge="1" parent="1" source="BOw-arjrgK9SXbsuC369-1" target="E_lYnqVRtEGuCz4sBSCE-3">
          <mxGeometry relative="1" as="geometry">
            <Array as="points">
              <mxPoint x="335" y="100" />
            </Array>
          </mxGeometry>
        </mxCell>
        <mxCell id="BOw-arjrgK9SXbsuC369-1" value="Configurar procesamiento" style="swimlane;html=1;fontStyle=0;childLayout=stackLayout;horizontal=1;startSize=29;fillColor=#d5e8d4;horizontalStack=0;resizeParent=1;resizeLast=0;collapsible=1;marginBottom=0;swimlaneFillColor=#ffffff;align=center;rounded=1;shadow=0;comic=0;labelBackgroundColor=none;strokeWidth=1;fontFamily=Verdana;fontSize=12;strokeColor=#82b366;" vertex="1" parent="1">
          <mxGeometry x="30" y="80" width="210" height="29" as="geometry" />
        </mxCell>
        <mxCell id="MkYFagtfYcvfL07DvzLI-6" style="edgeStyle=orthogonalEdgeStyle;rounded=0;orthogonalLoop=1;jettySize=auto;html=1;" edge="1" parent="1" source="6efIbfthWVleyXhkKFmn-6" target="J5wI7S2JML-e4GqQWwzT-13">
          <mxGeometry relative="1" as="geometry" />
        </mxCell>
        <mxCell id="6efIbfthWVleyXhkKFmn-6" value="Filtrar genes por error" style="swimlane;html=1;fontStyle=0;childLayout=stackLayout;horizontal=1;startSize=30;fillColor=#d5e8d4;horizontalStack=0;resizeParent=1;resizeLast=0;collapsible=1;marginBottom=0;swimlaneFillColor=#ffffff;align=center;rounded=1;shadow=0;comic=0;labelBackgroundColor=none;strokeWidth=1;fontFamily=Verdana;fontSize=12;strokeColor=#82b366;" vertex="1" parent="1">
          <mxGeometry x="690" y="82.5" width="210" height="24" as="geometry">
            <mxRectangle x="560" y="340" width="150" height="40" as="alternateBounds" />
          </mxGeometry>
        </mxCell>
        <mxCell id="MkYFagtfYcvfL07DvzLI-5" style="edgeStyle=orthogonalEdgeStyle;rounded=0;orthogonalLoop=1;jettySize=auto;html=1;" edge="1" parent="1" source="E_lYnqVRtEGuCz4sBSCE-3" target="J5wI7S2JML-e4GqQWwzT-4">
          <mxGeometry relative="1" as="geometry" />
        </mxCell>
        <mxCell id="MkYFagtfYcvfL07DvzLI-8" style="edgeStyle=orthogonalEdgeStyle;rounded=0;orthogonalLoop=1;jettySize=auto;html=1;" edge="1" parent="1" source="E_lYnqVRtEGuCz4sBSCE-3" target="E_lYnqVRtEGuCz4sBSCE-46">
          <mxGeometry relative="1" as="geometry" />
        </mxCell>
        <mxCell id="E_lYnqVRtEGuCz4sBSCE-3" value="Filtrar sondas por error" style="swimlane;html=1;fontStyle=0;childLayout=stackLayout;horizontal=1;startSize=29;fillColor=#d5e8d4;horizontalStack=0;resizeParent=1;resizeLast=0;collapsible=1;marginBottom=0;swimlaneFillColor=#ffffff;align=center;rounded=1;shadow=0;comic=0;labelBackgroundColor=none;strokeWidth=1;fontFamily=Verdana;fontSize=12;strokeColor=#82b366;" vertex="1" parent="1">
          <mxGeometry x="278.75" y="80" width="170" height="29" as="geometry" />
        </mxCell>
        <mxCell id="E_lYnqVRtEGuCz4sBSCE-46" value="Controlar calidad de datos" style="swimlane;html=1;fontStyle=0;childLayout=stackLayout;horizontal=1;startSize=30;fillColor=#fff2cc;horizontalStack=0;resizeParent=1;resizeLast=0;collapsible=1;marginBottom=0;swimlaneFillColor=#ffffff;align=center;rounded=1;shadow=0;comic=0;labelBackgroundColor=none;strokeWidth=1;fontFamily=Verdana;fontSize=12;strokeColor=#d6b656;" vertex="1" parent="1">
          <mxGeometry x="263.75" y="20" width="200" height="30" as="geometry" />
        </mxCell>
        <mxCell id="E_lYnqVRtEGuCz4sBSCE-65" value="Graficar" style="swimlane;html=1;fontStyle=0;childLayout=stackLayout;horizontal=1;startSize=30;fillColor=#d5e8d4;horizontalStack=0;resizeParent=1;resizeLast=0;collapsible=1;marginBottom=0;swimlaneFillColor=#ffffff;align=center;rounded=1;shadow=0;comic=0;labelBackgroundColor=none;strokeWidth=1;fontFamily=Verdana;fontSize=12;strokeColor=#82b366;" vertex="1" parent="1">
          <mxGeometry x="263.75" y="150" width="190" height="30" as="geometry">
            <mxRectangle x="560" y="340" width="150" height="40" as="alternateBounds" />
          </mxGeometry>
        </mxCell>
        <mxCell id="MkYFagtfYcvfL07DvzLI-9" style="edgeStyle=orthogonalEdgeStyle;rounded=0;orthogonalLoop=1;jettySize=auto;html=1;" edge="1" parent="1" source="E_lYnqVRtEGuCz4sBSCE-74" target="E_lYnqVRtEGuCz4sBSCE-65">
          <mxGeometry relative="1" as="geometry" />
        </mxCell>
        <mxCell id="E_lYnqVRtEGuCz4sBSCE-74" value="Enriquecer" style="swimlane;html=1;fontStyle=0;childLayout=stackLayout;horizontal=1;startSize=30;fillColor=#d5e8d4;horizontalStack=0;resizeParent=1;resizeLast=0;collapsible=1;marginBottom=0;swimlaneFillColor=#ffffff;align=center;rounded=1;shadow=0;comic=0;labelBackgroundColor=none;strokeWidth=1;fontFamily=Verdana;fontSize=12;strokeColor=#82b366;" vertex="1" parent="1">
          <mxGeometry x="490" y="150" width="157.5" height="30" as="geometry">
            <mxRectangle x="560" y="340" width="150" height="40" as="alternateBounds" />
          </mxGeometry>
        </mxCell>
        <mxCell id="MkYFagtfYcvfL07DvzLI-4" style="edgeStyle=orthogonalEdgeStyle;rounded=0;orthogonalLoop=1;jettySize=auto;html=1;" edge="1" parent="1" source="J5wI7S2JML-e4GqQWwzT-4" target="6efIbfthWVleyXhkKFmn-6">
          <mxGeometry relative="1" as="geometry">
            <Array as="points">
              <mxPoint x="700" y="90" />
            </Array>
          </mxGeometry>
        </mxCell>
        <mxCell id="J5wI7S2JML-e4GqQWwzT-4" value="Mapear y filtrar sondas" style="swimlane;html=1;fontStyle=0;childLayout=stackLayout;horizontal=1;startSize=30;fillColor=#d5e8d4;horizontalStack=0;resizeParent=1;resizeLast=0;collapsible=1;marginBottom=0;swimlaneFillColor=#ffffff;align=center;rounded=1;shadow=0;comic=0;labelBackgroundColor=none;strokeWidth=1;fontFamily=Verdana;fontSize=12;strokeColor=#82b366;" vertex="1" parent="1">
          <mxGeometry x="490" y="79" width="170" height="30" as="geometry" />
        </mxCell>
        <mxCell id="63gvJw7wCzRbycYj9wK5-7" style="edgeStyle=orthogonalEdgeStyle;rounded=0;orthogonalLoop=1;jettySize=auto;html=1;" edge="1" parent="1" source="J5wI7S2JML-e4GqQWwzT-13" target="63gvJw7wCzRbycYj9wK5-1">
          <mxGeometry relative="1" as="geometry" />
        </mxCell>
        <mxCell id="MkYFagtfYcvfL07DvzLI-7" style="edgeStyle=orthogonalEdgeStyle;rounded=0;orthogonalLoop=1;jettySize=auto;html=1;" edge="1" parent="1" source="J5wI7S2JML-e4GqQWwzT-13" target="E_lYnqVRtEGuCz4sBSCE-74">
          <mxGeometry relative="1" as="geometry" />
        </mxCell>
        <mxCell id="J5wI7S2JML-e4GqQWwzT-13" value="Procesar genes" style="swimlane;html=1;fontStyle=0;childLayout=stackLayout;horizontal=1;startSize=30;fillColor=#d5e8d4;horizontalStack=0;resizeParent=1;resizeLast=0;collapsible=1;marginBottom=0;swimlaneFillColor=#ffffff;align=center;rounded=1;shadow=0;comic=0;labelBackgroundColor=none;strokeWidth=1;fontFamily=Verdana;fontSize=12;strokeColor=#82b366;" vertex="1" parent="1">
          <mxGeometry x="695" y="150" width="200" height="28" as="geometry">
            <mxRectangle x="560" y="340" width="150" height="40" as="alternateBounds" />
          </mxGeometry>
        </mxCell>
        <mxCell id="63gvJw7wCzRbycYj9wK5-1" value="Controlar calidad resultados" style="swimlane;html=1;fontStyle=0;childLayout=stackLayout;horizontal=1;startSize=29;fillColor=#fff2cc;horizontalStack=0;resizeParent=1;resizeLast=0;collapsible=1;marginBottom=0;swimlaneFillColor=#ffffff;align=center;rounded=1;shadow=0;comic=0;labelBackgroundColor=none;strokeWidth=1;fontFamily=Verdana;fontSize=12;strokeColor=#d6b656;" vertex="1" parent="1">
          <mxGeometry x="695" y="210" width="200" height="29" as="geometry" />
        </mxCell>
      </root>
    </mxGraphModel>
  </diagram>
</mxfile>
